<mxfile host="Electron" modified="2024-05-06T04:21:08.824Z" agent="Mozilla/5.0 (X11; Linux x86_64) AppleWebKit/537.36 (KHTML, like Gecko) draw.io/24.2.5 Chrome/120.0.6099.109 Electron/28.1.0 Safari/537.36" etag="7FpckFrM6IGv7R-64032" version="24.2.5" type="device">
  <diagram name="PÃ¡gina-1" id="0GTE0kW3q7UEY7z1H5SU">
    <mxGraphModel dx="1364" dy="2012" grid="1" gridSize="10" guides="1" tooltips="1" connect="1" arrows="1" fold="1" page="1" pageScale="1" pageWidth="827" pageHeight="1169" math="0" shadow="0">
      <root>
        <mxCell id="0" />
        <mxCell id="1" parent="0" />
        <mxCell id="SBMLxHkrfZTI3e2XUqOY-1" value="Opciones.jsx" style="shape=folder;fontStyle=1;spacingTop=10;tabWidth=40;tabHeight=14;tabPosition=left;html=1;whiteSpace=wrap;" parent="1" vertex="1">
          <mxGeometry x="120" y="50" width="190" height="130" as="geometry" />
        </mxCell>
        <mxCell id="SBMLxHkrfZTI3e2XUqOY-4" value="listado" style="shape=document;whiteSpace=wrap;html=1;boundedLbl=1;" parent="1" vertex="1">
          <mxGeometry x="124" y="220" width="220" height="110" as="geometry" />
        </mxCell>
        <mxCell id="SBMLxHkrfZTI3e2XUqOY-32" value="close" style="labelPosition=center;verticalLabelPosition=middle;align=center;html=1;shape=mxgraph.basic.shaded_button;dx=10;fillColor=#999900;strokeColor=none;whiteSpace=wrap;" parent="1" vertex="1">
          <mxGeometry x="124" y="220" width="66" height="40" as="geometry" />
        </mxCell>
        <mxCell id="SBMLxHkrfZTI3e2XUqOY-36" value="images" style="labelPosition=center;verticalLabelPosition=middle;align=center;html=1;shape=mxgraph.basic.shaded_button;dx=10;fillColor=#FF99FF;strokeColor=none;whiteSpace=wrap;" parent="1" vertex="1">
          <mxGeometry x="120" y="140" width="66" height="40" as="geometry" />
        </mxCell>
        <mxCell id="vafMpFXmc-ywgR7l3nY4-3" style="edgeStyle=orthogonalEdgeStyle;rounded=0;orthogonalLoop=1;jettySize=auto;html=1;strokeWidth=2;strokeColor=#0000CC;" edge="1" parent="1" source="SBMLxHkrfZTI3e2XUqOY-37" target="vafMpFXmc-ywgR7l3nY4-2">
          <mxGeometry relative="1" as="geometry">
            <Array as="points">
              <mxPoint x="153" y="30" />
            </Array>
          </mxGeometry>
        </mxCell>
        <mxCell id="SBMLxHkrfZTI3e2XUqOY-37" value="langs" style="labelPosition=center;verticalLabelPosition=middle;align=center;html=1;shape=mxgraph.basic.shaded_button;dx=10;fillColor=#FF99FF;strokeColor=none;whiteSpace=wrap;" parent="1" vertex="1">
          <mxGeometry x="120" y="60" width="66" height="40" as="geometry" />
        </mxCell>
        <mxCell id="vafMpFXmc-ywgR7l3nY4-4" style="edgeStyle=orthogonalEdgeStyle;rounded=0;orthogonalLoop=1;jettySize=auto;html=1;strokeWidth=2;strokeColor=#0000CC;" edge="1" parent="1" source="SBMLxHkrfZTI3e2XUqOY-38" target="vafMpFXmc-ywgR7l3nY4-2">
          <mxGeometry relative="1" as="geometry" />
        </mxCell>
        <mxCell id="SBMLxHkrfZTI3e2XUqOY-38" value="users" style="labelPosition=center;verticalLabelPosition=middle;align=center;html=1;shape=mxgraph.basic.shaded_button;dx=10;fillColor=#FF99FF;strokeColor=none;whiteSpace=wrap;" parent="1" vertex="1">
          <mxGeometry x="244" y="60" width="66" height="40" as="geometry" />
        </mxCell>
        <mxCell id="vafMpFXmc-ywgR7l3nY4-6" style="edgeStyle=orthogonalEdgeStyle;rounded=0;orthogonalLoop=1;jettySize=auto;html=1;entryX=0;entryY=1;entryDx=0;entryDy=0;strokeWidth=2;strokeColor=#0000CC;" edge="1" parent="1" source="SBMLxHkrfZTI3e2XUqOY-39" target="vafMpFXmc-ywgR7l3nY4-2">
          <mxGeometry relative="1" as="geometry" />
        </mxCell>
        <mxCell id="SBMLxHkrfZTI3e2XUqOY-39" value="films" style="labelPosition=center;verticalLabelPosition=middle;align=center;html=1;shape=mxgraph.basic.shaded_button;dx=10;fillColor=#FF99FF;strokeColor=none;whiteSpace=wrap;" parent="1" vertex="1">
          <mxGeometry x="244" y="140" width="66" height="40" as="geometry" />
        </mxCell>
        <mxCell id="vafMpFXmc-ywgR7l3nY4-1" value="Cloud" style="ellipse;shape=cloud;whiteSpace=wrap;html=1;align=center;" vertex="1" parent="1">
          <mxGeometry x="680" y="-40" width="196" height="90" as="geometry" />
        </mxCell>
        <mxCell id="vafMpFXmc-ywgR7l3nY4-12" style="edgeStyle=orthogonalEdgeStyle;rounded=0;orthogonalLoop=1;jettySize=auto;html=1;exitX=0.5;exitY=1;exitDx=0;exitDy=0;entryX=1;entryY=0.5;entryDx=0;entryDy=0;shape=flexArrow;strokeColor=#2D7600;fillColor=#60a917;" edge="1" parent="1" source="vafMpFXmc-ywgR7l3nY4-2" target="SBMLxHkrfZTI3e2XUqOY-4">
          <mxGeometry relative="1" as="geometry" />
        </mxCell>
        <mxCell id="vafMpFXmc-ywgR7l3nY4-2" value="GetDatosXXX" style="ellipse;whiteSpace=wrap;html=1;fontColor=#ffffff;fontStyle=3;fillColor=#60a917;strokeColor=#2D7600;" vertex="1" parent="1">
          <mxGeometry x="344" y="10" width="140" height="70" as="geometry" />
        </mxCell>
        <mxCell id="vafMpFXmc-ywgR7l3nY4-5" style="edgeStyle=orthogonalEdgeStyle;rounded=0;orthogonalLoop=1;jettySize=auto;html=1;entryX=0.321;entryY=0.986;entryDx=0;entryDy=0;entryPerimeter=0;strokeWidth=2;strokeColor=#0000CC;" edge="1" parent="1" source="SBMLxHkrfZTI3e2XUqOY-36" target="vafMpFXmc-ywgR7l3nY4-2">
          <mxGeometry relative="1" as="geometry">
            <Array as="points">
              <mxPoint x="153" y="200" />
              <mxPoint x="389" y="200" />
            </Array>
          </mxGeometry>
        </mxCell>
        <mxCell id="vafMpFXmc-ywgR7l3nY4-7" style="edgeStyle=orthogonalEdgeStyle;rounded=0;orthogonalLoop=1;jettySize=auto;html=1;shape=flexArrow;startArrow=none;fillColor=#3333FF;strokeColor=#b85450;startFill=0;strokeWidth=2;endSize=6;startSize=5;exitX=0.9;exitY=0.214;exitDx=0;exitDy=0;exitPerimeter=0;" edge="1" parent="1" source="vafMpFXmc-ywgR7l3nY4-2" target="vafMpFXmc-ywgR7l3nY4-1">
          <mxGeometry relative="1" as="geometry">
            <mxPoint x="480" y="25" as="sourcePoint" />
            <mxPoint x="719.9960000000001" y="60" as="targetPoint" />
            <Array as="points">
              <mxPoint x="470" />
            </Array>
          </mxGeometry>
        </mxCell>
        <mxCell id="vafMpFXmc-ywgR7l3nY4-8" value="GET https://api_url_base_opciones" style="text;html=1;align=center;verticalAlign=middle;resizable=0;points=[];autosize=1;strokeColor=none;fillColor=none;fontStyle=3;fontColor=#3333FF;" vertex="1" parent="1">
          <mxGeometry x="450" y="-30" width="210" height="30" as="geometry" />
        </mxCell>
        <mxCell id="vafMpFXmc-ywgR7l3nY4-10" style="edgeStyle=orthogonalEdgeStyle;rounded=0;orthogonalLoop=1;jettySize=auto;html=1;shape=flexArrow;startArrow=none;fillColor=#FF6666;strokeColor=#000099;startFill=0;strokeWidth=2;endSize=6;startSize=5;entryX=1;entryY=0.5;entryDx=0;entryDy=0;" edge="1" parent="1" source="vafMpFXmc-ywgR7l3nY4-1" target="vafMpFXmc-ywgR7l3nY4-2">
          <mxGeometry relative="1" as="geometry">
            <mxPoint x="480" y="35" as="sourcePoint" />
            <mxPoint x="691" y="10" as="targetPoint" />
            <Array as="points">
              <mxPoint x="582" y="30" />
              <mxPoint x="582" y="45" />
            </Array>
          </mxGeometry>
        </mxCell>
        <mxCell id="vafMpFXmc-ywgR7l3nY4-11" value="JSON response.data.xxxx" style="text;html=1;align=center;verticalAlign=middle;resizable=0;points=[];autosize=1;strokeColor=none;fillColor=none;fontStyle=3;fontColor=#990000;" vertex="1" parent="1">
          <mxGeometry x="535" y="50" width="160" height="30" as="geometry" />
        </mxCell>
        <mxCell id="vafMpFXmc-ywgR7l3nY4-13" value="tabla" style="swimlane;fontStyle=3;childLayout=stackLayout;horizontal=1;startSize=26;horizontalStack=0;resizeParent=1;resizeParentMax=0;resizeLast=0;collapsible=1;marginBottom=0;align=center;fontSize=14;fontColor=#ffffff;fillColor=#60a917;strokeColor=#2D7600;" vertex="1" parent="1">
          <mxGeometry x="420" y="80" width="60" height="116" as="geometry" />
        </mxCell>
        <mxCell id="vafMpFXmc-ywgR7l3nY4-14" value="rows" style="text;strokeColor=#2D7600;fillColor=#60a917;spacingLeft=4;spacingRight=4;overflow=hidden;rotatable=0;points=[[0,0.5],[1,0.5]];portConstraint=eastwest;fontSize=12;whiteSpace=wrap;html=1;fontColor=#ffffff;fontStyle=3" vertex="1" parent="vafMpFXmc-ywgR7l3nY4-13">
          <mxGeometry y="26" width="60" height="30" as="geometry" />
        </mxCell>
        <mxCell id="vafMpFXmc-ywgR7l3nY4-15" value="fiedls" style="text;strokeColor=#2D7600;fillColor=#60a917;spacingLeft=4;spacingRight=4;overflow=hidden;rotatable=0;points=[[0,0.5],[1,0.5]];portConstraint=eastwest;fontSize=12;whiteSpace=wrap;html=1;fontColor=#ffffff;fontStyle=3" vertex="1" parent="vafMpFXmc-ywgR7l3nY4-13">
          <mxGeometry y="56" width="60" height="30" as="geometry" />
        </mxCell>
        <mxCell id="vafMpFXmc-ywgR7l3nY4-16" value="name" style="text;strokeColor=#2D7600;fillColor=#60a917;spacingLeft=4;spacingRight=4;overflow=hidden;rotatable=0;points=[[0,0.5],[1,0.5]];portConstraint=eastwest;fontSize=12;whiteSpace=wrap;html=1;fontColor=#ffffff;fontStyle=3" vertex="1" parent="vafMpFXmc-ywgR7l3nY4-13">
          <mxGeometry y="86" width="60" height="30" as="geometry" />
        </mxCell>
        <mxCell id="vafMpFXmc-ywgR7l3nY4-31" value="visible=false" style="whiteSpace=wrap;html=1;align=center;fontColor=#ffffff;fontStyle=3;fillColor=#60a917;strokeColor=#2D7600;" vertex="1" parent="1">
          <mxGeometry x="420" y="196" width="100" height="40" as="geometry" />
        </mxCell>
      </root>
    </mxGraphModel>
  </diagram>
</mxfile>
